# File generated by ImageToStl.com - Free Image and 3D model conversion tools

mtllib Crystal9.mtl

o obj1
v -1.27400514 1.35951596 -1.01598458
v -7.8E-07 1.33086506 -1.62652408
v -0.14155142 0.9981401 -1.5236476
v -1.60296541 7.37316987 -1.27832094
v -9.8E-07 7.30824777 -2.04787073
v -0.99548651 0.19105181 0.71971068
v -0.43256618 -0 0.98919673
v -0.85316533 0.14274893 0.98415279
v -0.93698269 0.17119599 -0.57232719
v -0.43256576 -0 -0.79281963
v -1.53068388 1.13509688 0.20338865
v -0.87010153 0.41804244 1.1217192
v -1.62448324 1.71177069 0.37077722
v 0.32115271 0.50674405 1.38798954
v 0.30200346 -0 1.12543171
v -0.6887449 0.95575995 1.43019142
v 0.73858583 0 -0.81615597
v -0.02232037 -0 -1.04876682
v 0.79405485 -0 0.63255453
v 1.04217967 0.78361421 -1.06754812
v -1.29352892 0.78601812 -0.68821336
v 1.21067436 1.02755163 0.78653279
v 0.70620757 1.34161127 1.46645677
v -2.00628601 7.57935194 0.45792163
v -1.76032223 7.8868069 -0.66568095
v -0.89614978 7.78333313 1.86087188
v -1.55558968 8.14272161 1.05313536
v 0.21011743 8.61601599 1.63687747
v -1.17695425 8.61601607 -0.14863206
v -1.17695425 8.61601603 0.76935753
v 0.87243039 8.61601611 -1.04461591
v 1.47369979 8.61601602 0.94629303
v 1.47369988 8.61601609 -0.6020287
v 1.70891993 8.19703121 -0.93725707
v 1.61986984 7.9588466 -1.29180385
v 0.94077587 8.09708841 -1.62394235
v 2.00926103 7.66204817 0.45860099
v 0.897092 7.84229256 1.86283343
v 1.67764295 2.23448014 0.38291091
v 1.58105101 8.42479686 1.03625534
v 0.13801585 8.35411019 1.87985952
v 1.27391415 1.35842361 -1.0159138
vn -0.43329 -0.06389 -0.89899
vn -0.32139 -0.94695 0
vn -0.86879 -0.26309 0.41952
vn -0.16294 -0.44903 0.87853
vn 0 -1 0
vn 0.26953 -0.38728 -0.88168
vn -0.47962 -0.42304 -0.76876
vn 0.6587 -0.36561 0.6576
vn -0.86207 -0.50582 -0.03126
vn -0.97267 -0.06257 -0.2236
vn -0.77493 -0.06202 0.629
vn 0 1 -0
vn 0.42399 0.69889 -0.57601
vn 0.7743 -0.05934 0.63003
vn -0.00304 -0.06214 0.99806
vn -0.78087 0.6247 -0
vn 0.39619 0.56348 0.72493
vn 0.97067 -0.05789 -0.23336
vn 0.87198 0.48954 0
vn 0.43767 -0.06198 -0.897
vn -0.28752 0.69631 -0.65764
vn 0.92798 -0.37093 -0.03553
vn -0.3878 0.68201 0.62005
vt 0.50655 0.15153
vt 0.52591 0.14986
vt 0.52376 0.13046
vt 0.50155 0.50224
vt 0.52591 0.49846
vt 0.51078 0.08339
vt 0.51934 0.07225
vt 0.51294 0.08057
vt 0.51167 0.08223
vt 0.51934 0.07225
vt 0.50264 0.13845
vt 0.51269 0.09663
vt 0.50122 0.17208
vt 0.53079 0.1018
vt 0.5305 0.07225
vt 0.51544 0.12799
vt 0.53714 0.07225
vt 0.52557 0.07225
vt 0.53798 0.07225
vt 0.54175 0.11795
vt 0.50625 0.11809
vt 0.54432 0.13217
vt 0.53665 0.15049
vt 0.49541 0.51427
vt 0.49915 0.5322
vt 0.51229 0.52616
vt 0.50227 0.54712
vt 0.52911 0.57472
vt 0.50802 0.57472
vt 0.53917 0.57472
vt 0.54831 0.57472
vt 0.55189 0.55029
vt 0.55053 0.5364
vt 0.54021 0.54446
vt 0.55645 0.51909
vt 0.53955 0.5296
vt 0.55141 0.20256
vt 0.54995 0.56357
vt 0.52801 0.55945
vt 0.54528 0.15147
usemtl mat0
f 1/1/1 2/2/1 3/3/1
f 1/1/1 4/4/1 5/5/1
f 5/5/1 2/2/1 1/1/1
f 6/6/2 7/7/2 8/8/2
f 9/9/2 7/7/2 6/6/2
f 7/7/2 9/9/2 10/10/2
f 11/11/3 12/12/3 13/13/3
f 6/6/3 12/12/3 11/11/3
f 12/12/3 6/6/3 8/8/3
f 14/14/4 7/7/4 15/15/4
f 16/16/4 7/7/4 14/14/4
f 7/7/4 16/16/4 12/12/4
f 7/7/4 12/12/4 8/8/4
f 17/17/5 10/10/5 18/18/5
f 19/19/5 10/10/5 17/17/5
f 19/19/5 7/7/5 10/10/5
f 7/7/5 19/19/5 15/15/5
f 20/20/6 3/3/6 2/2/6
f 3/3/6 17/17/6 18/18/6
f 17/17/6 3/3/6 20/20/6
f 21/21/7 3/3/7 9/9/7
f 10/10/7 3/3/7 18/18/7
f 3/3/7 21/21/7 1/1/7
f 3/3/7 10/10/7 9/9/7
f 22/22/8 14/14/8 19/19/8
f 14/14/8 22/22/8 23/23/8
f 15/15/8 19/19/8 14/14/8
f 9/9/9 11/11/9 21/21/9
f 11/11/9 9/9/9 6/6/9
f 11/11/10 1/1/10 21/21/10
f 1/1/10 13/13/10 4/4/10
f 1/1/10 11/11/10 13/13/10
f 4/4/10 24/24/10 25/25/10
f 24/24/10 4/4/10 13/13/10
f 24/24/11 26/26/11 27/27/11
f 16/16/11 13/13/11 12/12/11
f 13/13/11 26/26/11 24/24/11
f 26/26/11 13/13/11 16/16/11
f 28/28/12 29/29/12 30/29/12
f 28/28/12 31/30/12 29/29/12
f 31/30/12 32/31/12 33/31/12
f 31/30/12 28/28/12 32/31/12
f 34/32/13 31/30/13 33/31/13
f 35/33/13 31/30/13 34/32/13
f 31/30/13 35/33/13 36/34/13
f 37/35/14 38/36/14 39/37/14
f 38/36/14 37/35/14 40/38/14
f 39/37/14 23/23/14 22/22/14
f 23/23/14 39/37/14 38/36/14
f 16/16/15 23/23/15 26/26/15
f 23/23/15 16/16/15 14/14/15
f 26/26/15 38/36/15 41/39/15
f 38/36/15 26/26/15 23/23/15
f 24/24/16 30/29/16 29/29/16
f 24/24/16 29/29/16 25/25/16
f 30/29/16 24/24/16 27/27/16
f 32/31/17 38/36/17 40/38/17
f 28/28/17 38/36/17 32/31/17
f 38/36/17 28/28/17 41/39/17
f 35/33/18 34/32/18 37/35/18
f 35/33/18 39/37/18 42/40/18
f 39/37/18 35/33/18 37/35/18
f 33/31/19 37/35/19 34/32/19
f 37/35/19 32/31/19 40/38/19
f 32/31/19 37/35/19 33/31/19
f 42/40/20 5/5/20 35/33/20
f 2/2/20 42/40/20 20/20/20
f 5/5/20 42/40/20 2/2/20
f 35/33/20 5/5/20 36/34/20
f 31/30/21 5/5/21 29/29/21
f 5/5/21 31/30/21 36/34/21
f 29/29/21 4/4/21 25/25/21
f 29/29/21 5/5/21 4/4/21
f 20/20/22 22/22/22 17/17/22
f 42/40/22 22/22/22 20/20/22
f 22/22/22 19/19/22 17/17/22
f 22/22/22 42/40/22 39/37/22
f 28/28/23 26/26/23 41/39/23
f 26/26/23 28/28/23 30/29/23
f 27/27/23 26/26/23 30/29/23
# Vertices: 42, normals: 23, texture coordinates: 40, faces: 80

