# File generated by ImageToStl.com - Free Image and 3D model conversion tools

mtllib Crystal2.mtl

o obj1
v 1.25231128 1.83115648 2.18275272
v 1.64320786 1.8311565 1.66473453
v 1.15445126 2.26907033 1.77374865
v 1.12519003 1.83115633 1.27383795
v 0.73429332 1.8311565 1.79185577
v 1.47957988 2.1E-07 2.15590354
v 1.28772184 2.1E-07 0.78412136
v 2.06954218 2.1E-07 1.37408338
v 0.69775968 2.1E-07 1.56594161
v 2.2040762 2.85339476 -2.05564654
v 1.19284363 2.85339476 -2.05564654
v 1.69845987 3.53577293 -1.5500299
v 1.19284363 2.85339472 -1.0444137
v 2.2040762 2.85339472 -1.0444137
v 2.27725748 2.1E-07 -0.97123273
v 1.11966264 2.1E-07 -2.1288272
v 2.27725748 2.1E-07 -2.1288272
v 1.11966264 2.1E-07 -0.97123273
v -3.07922456 3.03620871 -1.60571137
v -2.08184682 3.03620869 -1.20190508
v -2.46614777 3.76230561 -1.93792919
v -1.67804062 3.03620873 -2.19928274
v -2.675418 3.03620875 -2.60308912
v -1.43341748 2.1E-07 -0.64378916
v -2.32926682 2.1E-07 -2.75853071
v -0.82397135 2.1E-07 -2.14908458
v -2.93871295 2.1E-07 -1.25323543
v -2.82173976 2.97773098 2.24814298
v -1.80240143 2.97773099 1.97501233
v -2.53807828 3.68984335 1.62587443
v -2.07553245 2.97773104 0.95567372
v -3.09487078 2.97773103 1.22880483
v -1.37728797 2.1E-07 0.49039396
v -2.50350367 2.1E-07 2.44105756
v -2.91572772 2.1E-07 0.90261782
v -0.96506393 2.1E-07 2.02883389
v 3.2938797 3.03620866 -0.61714287
v 2.21785828 3.03620866 -0.61714287
v 2.85028443 3.76230553 -0.07913227
v 2.21785828 3.03620862 0.45887827
v 3.2938797 3.03620862 0.45887827
v 3.0313611 2.1E-07 0.73286197
v 1.40737258 2.1E-07 -0.8911266
v 3.0313611 2.1E-07 -0.8911266
v 1.40737258 2.1E-07 0.73286197
v 1.03632445 5.64339948 -1.07913225
v -0.96367551 5.64339948 -1.07913225
v 0.03632448 6.99299574 -0.07913227
v -0.96367551 5.64339939 0.9208677
v 1.03632445 5.64339939 0.9208677
v 1.54557787 2.1E-07 1.43012116
v -1.47292884 2.1E-07 -1.58838574
v 1.54557787 2.1E-07 -1.58838574
v -1.47292884 2.1E-07 1.43012116
v 0.26052922 2.43108266 1.61088529
v -0.6010375 2.43108266 1.61088529
v -0.17025414 3.01246634 2.04166876
v -0.6010375 2.43108262 2.47245218
v 0.26052922 2.43108262 2.47245218
v 0.42909258 2.1E-07 2.64101569
v -0.7696012 2.1E-07 1.44232186
v 0.42909258 2.1E-07 1.44232186
v -0.7696012 2.1E-07 2.64101569
vn 0.64136 0.59534 0.48397
vn -0.64136 0.59534 -0.48397
vn 0.45421 0.65679 -0.60193
vn -0.51401 0.52134 0.68117
vn -0 -1 0
vn -0.795 0.08987 -0.59991
vn -0.60011 -0.08614 0.79527
vn 0.795 0.08987 0.59991
vn 0.58197 0.25791 -0.77123
vn 0 0.59534 -0.80347
vn 0 0.59534 0.80347
vn -0.80347 0.59534 0
vn 0.80347 0.59534 0
vn 0 -1 0
vn 0 0.02564 0.99967
vn 0.99967 0.02564 -0
vn 0 0.02564 -0.99967
vn -0.99967 0.02564 -0
vn -0.30152 0.59534 0.74475
vn 0.30152 0.59534 -0.74475
vn 0.69896 0.65679 0.28299
vn -0.79098 0.52134 -0.32024
vn 0 -1 0
vn 0.37376 0.08987 -0.92316
vn -0.92347 -0.08614 -0.37388
vn -0.37376 0.08987 0.92316
vn 0.89555 0.25791 0.36258
vn 0.20795 0.59534 0.77609
vn -0.20795 0.59534 -0.77609
vn 0.72838 0.65679 -0.19517
vn -0.82427 0.52134 0.22086
vn -0 -1 0
vn -0.25777 0.08987 -0.96202
vn -0.96234 -0.08614 0.25786
vn 0.25777 0.08987 0.96202
vn 0.93325 0.25791 -0.25006
vn 0 0.59534 -0.80347
vn 0 0.59534 0.80347
vn -0.75407 0.65679 0
vn 0.85335 0.52134 0
vn 0 -1 0
vn 0 0.08987 0.99595
vn 0.99628 -0.08614 0
vn 0 0.08987 -0.99595
vn -0.96617 0.25791 0
vn 0 0.59534 -0.80347
vn 0 0.59534 0.80347
vn -0.80347 0.59534 0
vn 0.80347 0.59534 0
vn 0 0.08987 0.99595
vn 0.99595 0.08987 -0
vn 0 0.08987 -0.99595
vn -0.99595 0.08987 -0
vn 0 0.59534 -0.80347
vn 0 0.59534 0.80347
vn -0.80347 0.59534 0
vn 0.80347 0.59534 0
vn 0 -1 0
vn 0 0.06917 0.9976
vn 0.9976 0.06917 0
vn 0 0.06917 -0.9976
vn -0.9976 0.06917 0
vt 0.50255 0.27423
vt 0.50754 0.27423
vt 0.5013 0.335
vt 0.50092 0.27423
vt 0.49593 0.27423
vt 0.50545 0.02013
vt 0.503 0.02013
vt 0.51299 0.02013
vt 0.49546 0.02013
vt 0.51471 0.41608
vt 0.50179 0.41608
vt 0.50825 0.51077
vt 0.51564 0.02013
vt 0.50085 0.02013
vt 0.44719 0.44145
vt 0.45994 0.44145
vt 0.45502 0.54221
vt 0.4651 0.44145
vt 0.45235 0.44145
vt 0.46822 0.02013
vt 0.45677 0.02013
vt 0.47601 0.02013
vt 0.44899 0.02013
vt 0.45048 0.43334
vt 0.46351 0.43334
vt 0.45411 0.53215
vt 0.46002 0.43334
vt 0.44699 0.43334
vt 0.46894 0.02013
vt 0.45455 0.02013
vt 0.44928 0.02013
vt 0.47421 0.02013
vt 0.52864 0.44145
vt 0.51489 0.44145
vt 0.52297 0.54221
vt 0.52528 0.02013
vt 0.50453 0.02013
vt 0.49979 0.80324
vt 0.47423 0.80324
vt 0.48701 0.99052
vt 0.50629 0.02013
vt 0.46772 0.02013
vt 0.48987 0.35748
vt 0.47886 0.35748
vt 0.48437 0.43816
vt 0.47886 0.35748
vt 0.48987 0.35748
vt 0.49203 0.02013
vt 0.47671 0.02013
usemtl mat0
f 1/1/1 2/2/1 3/3/1
f 4/4/2 5/5/2 3/3/2
f 2/2/3 4/4/3 3/3/3
f 5/5/4 1/1/4 3/3/4
f 6/6/5 7/7/5 8/8/5
f 7/7/5 6/6/5 9/9/5
f 9/9/6 4/4/6 7/7/6
f 9/9/6 5/5/6 4/4/6
f 1/1/7 9/9/7 6/6/7
f 9/9/7 1/1/7 5/5/7
f 2/2/8 6/6/8 8/8/8
f 6/6/8 2/2/8 1/1/8
f 7/7/9 4/4/9 2/2/9
f 2/2/9 8/8/9 7/7/9
f 10/10/10 11/11/10 12/12/10
f 13/11/11 14/10/11 12/12/11
f 11/11/12 13/11/12 12/12/12
f 14/10/13 10/10/13 12/12/13
f 15/13/14 16/14/14 17/13/14
f 15/13/14 18/14/14 16/14/14
f 18/14/15 14/10/15 13/11/15
f 14/10/15 18/14/15 15/13/15
f 14/10/16 15/13/16 17/13/16
f 14/10/16 17/13/16 10/10/16
f 16/14/17 11/11/17 10/10/17
f 10/10/17 17/13/17 16/14/17
f 16/14/18 13/11/18 11/11/18
f 13/11/18 16/14/18 18/14/18
f 19/15/19 20/16/19 21/17/19
f 22/18/20 23/19/20 21/17/20
f 20/16/21 22/18/21 21/17/21
f 23/19/22 19/15/22 21/17/22
f 24/20/23 25/21/23 26/22/23
f 25/21/23 24/20/23 27/23/23
f 25/21/24 23/19/24 22/18/24
f 22/18/24 26/22/24 25/21/24
f 25/21/25 19/15/25 23/19/25
f 19/15/25 25/21/25 27/23/25
f 20/16/26 27/23/26 24/20/26
f 27/23/26 20/16/26 19/15/26
f 20/16/27 26/22/27 22/18/27
f 20/16/27 24/20/27 26/22/27
f 28/24/28 29/25/28 30/26/28
f 31/27/29 32/28/29 30/26/29
f 29/25/30 31/27/30 30/26/30
f 32/28/31 28/24/31 30/26/31
f 33/29/32 34/30/32 35/31/32
f 34/30/32 33/29/32 36/32/32
f 35/31/33 32/28/33 31/27/33
f 31/27/33 33/29/33 35/31/33
f 34/30/34 32/28/34 35/31/34
f 32/28/34 34/30/34 28/24/34
f 29/25/35 34/30/35 36/32/35
f 34/30/35 29/25/35 28/24/35
f 31/27/36 36/32/36 33/29/36
f 36/32/36 31/27/36 29/25/36
f 37/33/37 38/34/37 39/35/37
f 40/34/38 41/33/38 39/35/38
f 38/34/39 40/34/39 39/35/39
f 41/33/40 37/33/40 39/35/40
f 42/36/41 43/37/41 44/36/41
f 42/36/41 45/37/41 43/37/41
f 42/36/42 40/34/42 45/37/42
f 40/34/42 42/36/42 41/33/42
f 41/33/43 44/36/43 37/33/43
f 41/33/43 42/36/43 44/36/43
f 38/34/44 44/36/44 43/37/44
f 44/36/44 38/34/44 37/33/44
f 43/37/45 40/34/45 38/34/45
f 40/34/45 43/37/45 45/37/45
f 46/38/46 47/39/46 48/40/46
f 49/39/47 50/38/47 48/40/47
f 47/39/48 49/39/48 48/40/48
f 50/38/49 46/38/49 48/40/49
f 51/41/41 52/42/41 53/41/41
f 51/41/41 54/42/41 52/42/41
f 54/42/50 50/38/50 49/39/50
f 50/38/50 54/42/50 51/41/50
f 50/38/51 53/41/51 46/38/51
f 50/38/51 51/41/51 53/41/51
f 52/42/52 47/39/52 46/38/52
f 46/38/52 53/41/52 52/42/52
f 52/42/53 49/39/53 47/39/53
f 49/39/53 52/42/53 54/42/53
f 55/43/54 56/44/54 57/45/54
f 58/46/55 59/47/55 57/45/55
f 56/44/56 58/46/56 57/45/56
f 59/47/57 55/43/57 57/45/57
f 60/48/58 61/49/58 62/48/58
f 60/48/58 63/49/58 61/49/58
f 60/48/59 58/46/59 63/49/59
f 58/46/59 60/48/59 59/47/59
f 59/47/60 62/48/60 55/43/60
f 59/47/60 60/48/60 62/48/60
f 56/44/61 62/48/61 61/49/61
f 62/48/61 56/44/61 55/43/61
f 61/49/62 58/46/62 56/44/62
f 58/46/62 61/49/62 63/49/62
# Vertices: 63, normals: 62, texture coordinates: 49, faces: 98

